<mxfile host="app.diagrams.net" agent="Mozilla/5.0 (Macintosh; Intel Mac OS X 10_15_7) AppleWebKit/537.36 (KHTML, like Gecko) Chrome/131.0.0.0 Safari/537.36" version="26.0.11">
  <diagram name="Page-1" id="DZDoByt4Uk-sOLIG5DN4">
    <mxGraphModel dx="1311" dy="813" grid="1" gridSize="10" guides="1" tooltips="1" connect="1" arrows="1" fold="1" page="1" pageScale="1" pageWidth="850" pageHeight="1100" math="0" shadow="0">
      <root>
        <mxCell id="0" />
        <mxCell id="1" parent="0" />
        <mxCell id="SBJL5QoE2MKQerz_ylUl-8" style="edgeStyle=orthogonalEdgeStyle;rounded=0;orthogonalLoop=1;jettySize=auto;html=1;" parent="1" source="SBJL5QoE2MKQerz_ylUl-1" target="SBJL5QoE2MKQerz_ylUl-7" edge="1">
          <mxGeometry relative="1" as="geometry" />
        </mxCell>
        <mxCell id="SBJL5QoE2MKQerz_ylUl-1" value="User" style="shape=umlActor;verticalLabelPosition=bottom;verticalAlign=top;html=1;outlineConnect=0;" parent="1" vertex="1">
          <mxGeometry y="230" width="30" height="60" as="geometry" />
        </mxCell>
        <mxCell id="SBJL5QoE2MKQerz_ylUl-6" value="I am only interested in sending a URL and getting sheet music. At most I would create a account&amp;amp;login so I can fetch my previous queries, and if the service is paid I would manage my credit" style="whiteSpace=wrap;html=1;shape=mxgraph.basic.roundRectCallout;dx=30;dy=15;size=5;boundedLbl=1;" parent="1" vertex="1">
          <mxGeometry x="10" width="130" height="230" as="geometry" />
        </mxCell>
        <mxCell id="SBJL5QoE2MKQerz_ylUl-10" style="edgeStyle=orthogonalEdgeStyle;rounded=0;orthogonalLoop=1;jettySize=auto;html=1;exitX=1;exitY=0.5;exitDx=0;exitDy=0;entryX=0;entryY=0.5;entryDx=0;entryDy=0;" parent="1" source="SBJL5QoE2MKQerz_ylUl-7" target="SBJL5QoE2MKQerz_ylUl-9" edge="1">
          <mxGeometry relative="1" as="geometry" />
        </mxCell>
        <mxCell id="SBJL5QoE2MKQerz_ylUl-7" value="Captcha&amp;amp;Equivalent&lt;div&gt;DDoS Protection&lt;/div&gt;" style="shape=parallelogram;perimeter=parallelogramPerimeter;whiteSpace=wrap;html=1;fixedSize=1;" parent="1" vertex="1">
          <mxGeometry x="210" y="230" width="160" height="60" as="geometry" />
        </mxCell>
        <mxCell id="SBJL5QoE2MKQerz_ylUl-15" style="edgeStyle=orthogonalEdgeStyle;rounded=0;orthogonalLoop=1;jettySize=auto;html=1;entryX=0.5;entryY=0;entryDx=0;entryDy=0;" parent="1" source="SBJL5QoE2MKQerz_ylUl-9" target="SBJL5QoE2MKQerz_ylUl-13" edge="1">
          <mxGeometry relative="1" as="geometry" />
        </mxCell>
        <mxCell id="SBJL5QoE2MKQerz_ylUl-9" value="HTTP Endpoints" style="shape=parallelogram;perimeter=parallelogramPerimeter;whiteSpace=wrap;html=1;fixedSize=1;" parent="1" vertex="1">
          <mxGeometry x="425" y="230" width="120" height="60" as="geometry" />
        </mxCell>
        <mxCell id="SBJL5QoE2MKQerz_ylUl-11" value="GET /health&lt;div&gt;Parameters:None&lt;/div&gt;&lt;div&gt;Returns: 200 OK&lt;/div&gt;&lt;div&gt;&lt;br&gt;&lt;/div&gt;&lt;div&gt;POST /sheet-music&lt;/div&gt;&lt;div&gt;Parameters: Youtube URL&lt;/div&gt;&lt;div&gt;Returns:&amp;nbsp;&lt;/div&gt;&lt;div&gt;-202 &amp;amp; PDF Document&lt;/div&gt;&lt;div&gt;- 500 Server Error&lt;/div&gt;&lt;div&gt;- 4XX Invalid URL&lt;/div&gt;&lt;div&gt;&lt;br&gt;&lt;/div&gt;&lt;div&gt;&amp;amp;&amp;amp;Auth Related Endpoints&lt;/div&gt;" style="text;strokeColor=none;align=center;fillColor=none;html=1;verticalAlign=middle;whiteSpace=wrap;rounded=0;" parent="1" vertex="1">
          <mxGeometry x="580" y="160" width="130" height="190" as="geometry" />
        </mxCell>
        <mxCell id="SBJL5QoE2MKQerz_ylUl-13" value="" style="rounded=0;whiteSpace=wrap;html=1;" parent="1" vertex="1">
          <mxGeometry x="30" y="400" width="1130" height="630" as="geometry" />
        </mxCell>
        <mxCell id="SBJL5QoE2MKQerz_ylUl-16" value="&lt;b&gt;&lt;font style=&quot;font-size: 21px;&quot;&gt;Python App&lt;/font&gt;&lt;/b&gt;" style="text;strokeColor=none;align=center;fillColor=none;html=1;verticalAlign=middle;whiteSpace=wrap;rounded=0;" parent="1" vertex="1">
          <mxGeometry x="30" y="370" width="270" height="30" as="geometry" />
        </mxCell>
        <mxCell id="SBJL5QoE2MKQerz_ylUl-17" value="Youtube URL" style="text;strokeColor=none;align=center;fillColor=none;html=1;verticalAlign=middle;whiteSpace=wrap;rounded=0;" parent="1" vertex="1">
          <mxGeometry x="485" y="340" width="60" height="30" as="geometry" />
        </mxCell>
        <mxCell id="SBJL5QoE2MKQerz_ylUl-18" value="&lt;b&gt;Interfaces &amp;amp; Modules&lt;/b&gt;&lt;div&gt;Create temporary folder&lt;br&gt;&lt;div&gt;Fetch Video from Youtube&lt;/div&gt;&lt;div&gt;Download video to local&lt;/div&gt;&lt;div&gt;Load Video to Memory&lt;/div&gt;&lt;div&gt;Frame by Frame, Image processing to identify sheet music&lt;/div&gt;&lt;div&gt;Each time the sheet music changes, it&#39;s a save&lt;/div&gt;&lt;div&gt;When it&#39;s done, create new image stitching images&lt;/div&gt;&lt;div&gt;Convert to PDF&lt;/div&gt;&lt;div&gt;Return PDF to User&lt;/div&gt;&lt;div&gt;Delete temporary folder&lt;/div&gt;&lt;div&gt;&lt;br&gt;&lt;/div&gt;&lt;/div&gt;" style="text;strokeColor=none;align=center;fillColor=none;html=1;verticalAlign=middle;whiteSpace=wrap;rounded=0;labelPosition=center;verticalLabelPosition=middle;" parent="1" vertex="1">
          <mxGeometry x="45" y="420" width="155" height="230" as="geometry" />
        </mxCell>
        <mxCell id="S2JAl43yNbDRmPWXYPZ5-1" value="&lt;div&gt;&lt;b&gt;Modules&amp;amp;Interfaces&lt;/b&gt;&lt;/div&gt;&lt;div&gt;#1 File Management&lt;/div&gt;&lt;div&gt;#2 Web Server&lt;/div&gt;&lt;div&gt;#3 Core Logic&lt;/div&gt;&lt;div&gt;#4 Image Manipulation&lt;/div&gt;&lt;div&gt;#5 Output Formatting&lt;/div&gt;&lt;div&gt;&lt;br&gt;&lt;/div&gt;&lt;div&gt;&lt;div&gt;&lt;br&gt;&lt;/div&gt;&lt;div&gt;&lt;br&gt;&lt;/div&gt;&lt;/div&gt;" style="text;strokeColor=none;align=center;fillColor=none;html=1;verticalAlign=middle;whiteSpace=wrap;rounded=0;labelPosition=center;verticalLabelPosition=middle;" vertex="1" parent="1">
          <mxGeometry x="780" y="410" width="155" height="150" as="geometry" />
        </mxCell>
        <mxCell id="S2JAl43yNbDRmPWXYPZ5-12" style="edgeStyle=orthogonalEdgeStyle;rounded=0;orthogonalLoop=1;jettySize=auto;html=1;exitX=0;exitY=0.5;exitDx=0;exitDy=0;entryX=0;entryY=0.5;entryDx=0;entryDy=0;" edge="1" parent="1" source="S2JAl43yNbDRmPWXYPZ5-3" target="S2JAl43yNbDRmPWXYPZ5-7">
          <mxGeometry relative="1" as="geometry" />
        </mxCell>
        <mxCell id="S2JAl43yNbDRmPWXYPZ5-3" value="Process Begins" style="rhombus;whiteSpace=wrap;html=1;" vertex="1" parent="1">
          <mxGeometry x="280" y="420" width="95" height="95" as="geometry" />
        </mxCell>
        <mxCell id="S2JAl43yNbDRmPWXYPZ5-5" value="" style="endArrow=classic;html=1;rounded=0;exitX=0.5;exitY=0;exitDx=0;exitDy=0;entryX=0.5;entryY=0;entryDx=0;entryDy=0;" edge="1" parent="1" source="SBJL5QoE2MKQerz_ylUl-13" target="S2JAl43yNbDRmPWXYPZ5-3">
          <mxGeometry width="50" height="50" relative="1" as="geometry">
            <mxPoint x="550" y="480" as="sourcePoint" />
            <mxPoint x="485" y="430" as="targetPoint" />
          </mxGeometry>
        </mxCell>
        <mxCell id="S2JAl43yNbDRmPWXYPZ5-16" style="edgeStyle=orthogonalEdgeStyle;rounded=0;orthogonalLoop=1;jettySize=auto;html=1;exitX=0.5;exitY=1;exitDx=0;exitDy=0;entryX=0.5;entryY=0;entryDx=0;entryDy=0;" edge="1" parent="1" source="S2JAl43yNbDRmPWXYPZ5-7" target="S2JAl43yNbDRmPWXYPZ5-15">
          <mxGeometry relative="1" as="geometry" />
        </mxCell>
        <mxCell id="S2JAl43yNbDRmPWXYPZ5-7" value="1) Verify Input" style="rounded=1;whiteSpace=wrap;html=1;" vertex="1" parent="1">
          <mxGeometry x="290" y="560" width="110" height="60" as="geometry" />
        </mxCell>
        <mxCell id="S2JAl43yNbDRmPWXYPZ5-13" value="" style="shape=sumEllipse;perimeter=ellipsePerimeter;whiteSpace=wrap;html=1;backgroundOutline=1;" vertex="1" parent="1">
          <mxGeometry x="45" y="900" width="25" height="30" as="geometry" />
        </mxCell>
        <mxCell id="S2JAl43yNbDRmPWXYPZ5-14" value="&lt;b&gt;Error Codes&lt;/b&gt;&lt;div&gt;E1: Invalid link&lt;/div&gt;&lt;div&gt;E2: Not a Youtube link&lt;/div&gt;" style="text;strokeColor=none;align=center;fillColor=none;html=1;verticalAlign=middle;whiteSpace=wrap;rounded=0;" vertex="1" parent="1">
          <mxGeometry x="70" y="840" width="130" height="60" as="geometry" />
        </mxCell>
        <mxCell id="S2JAl43yNbDRmPWXYPZ5-15" value="" style="shape=sumEllipse;perimeter=ellipsePerimeter;whiteSpace=wrap;html=1;backgroundOutline=1;" vertex="1" parent="1">
          <mxGeometry x="332.5" y="650" width="25" height="30" as="geometry" />
        </mxCell>
        <mxCell id="S2JAl43yNbDRmPWXYPZ5-17" value="E1/E2" style="text;strokeColor=none;align=center;fillColor=none;html=1;verticalAlign=middle;whiteSpace=wrap;rounded=0;" vertex="1" parent="1">
          <mxGeometry x="350" y="640" width="60" height="30" as="geometry" />
        </mxCell>
      </root>
    </mxGraphModel>
  </diagram>
</mxfile>
